<svg width="1276" height="510" viewBox="0 0 1276 510" fill="none" xmlns="http://www.w3.org/2000/svg">
<path d="M140.869 373.535C140.715 373.869 140.573 374.21 140.444 374.558C99.5901 350.463 58.7348 326.368 17.8807 302.272C61.4205 362.491 104.96 422.71 148.499 482.928L152.985 393.893C153.303 393.913 153.624 393.928 153.947 393.928C154.008 393.928 154.07 393.924 154.131 393.923L158.829 487.076C157.303 486.525 155.658 486.224 153.942 486.224C148.828 486.224 144.339 488.893 141.788 492.913L17.0466 302.27C20.3004 300.139 22.6354 296.727 23.3386 292.749C62.5152 319.678 101.692 346.606 140.869 373.535Z" fill="#D5429F"/>
<path d="M285.348 297.572C287.399 301.019 290.847 303.536 294.913 304.34C250.72 365.869 206.527 427.399 162.335 488.929C162.153 488.797 161.968 488.67 161.779 488.547C202.793 425.418 243.808 362.288 284.821 299.158C245.99 326.039 207.159 352.921 168.327 379.801C168.329 379.714 168.335 379.627 168.335 379.54C168.335 375.627 166.771 372.081 164.236 369.487L285.348 297.572Z" fill="#D5429F"/>
<path d="M144.254 340.127C141.523 342.618 139.755 346.148 139.574 350.091C100.06 322.93 60.5445 295.77 21.0306 268.609C21.219 268.336 21.3958 268.054 21.5654 267.767C62.4613 291.887 103.358 316.007 144.254 340.127Z" fill="#D5429F"/>
<path d="M283.225 263.253C283.97 267.042 286.202 270.298 289.289 272.386C248.56 296.57 207.829 320.751 167.099 344.935C166.953 344.606 166.798 344.283 166.628 343.968C205.494 317.064 244.359 290.158 283.225 263.253Z" fill="#D5429F"/>
<path d="M159.374 337.438C157.699 336.755 155.868 336.376 153.947 336.376C152.023 336.376 150.187 336.755 148.51 337.44L153.351 195.458C153.549 195.466 153.747 195.474 153.947 195.474C154.144 195.474 154.34 195.466 154.535 195.458L159.374 337.438Z" fill="#D5429F"/>
<path d="M147.031 22.0031C147.016 22.0302 147.002 22.058 146.987 22.085C105.951 96.7425 64.9143 171.401 23.8785 246.058C62.6458 225.799 101.413 205.538 140.181 185.28C140.291 185.644 140.419 186 140.557 186.352C101.519 210.448 62.4814 234.544 23.4435 258.64C22.6187 252.101 17.4107 246.932 10.8517 246.171C11.0721 245.806 11.2941 245.443 11.5145 245.078L146.473 21.7882C146.488 21.7631 146.501 21.7365 146.516 21.7114C146.685 21.8133 146.858 21.9081 147.031 22.0031Z" fill="#D5429F"/>
<path d="M285.231 252.693C285.04 252.99 284.857 253.291 284.688 253.602C244.725 232.576 204.762 211.55 164.799 190.525C166.999 187.998 168.335 184.699 168.335 181.086C168.335 180.721 168.316 180.361 168.289 180.003C207.269 204.233 246.25 228.463 285.231 252.693Z" fill="#D5429F"/>
<path d="M166.027 19.1424L290.428 247.839C290.253 247.935 290.081 248.034 289.911 248.136L159.177 29.7204L154.344 166.705C154.212 166.702 154.08 166.698 153.947 166.698C153.812 166.698 153.677 166.702 153.543 166.705L148.458 22.6889C150.15 23.3878 152.003 23.7764 153.947 23.7764C158.64 23.7763 162.807 21.5272 165.433 18.0498C165.631 18.4139 165.829 18.7783 166.027 19.1424Z" fill="#D5429F"/>
<path d="M9.1701 252.023C13.8281 252.023 17.6039 255.801 17.6039 260.459C17.6031 265.117 13.8277 268.893 9.1701 268.893C4.51245 268.893 0.737112 265.117 0.736328 260.459C0.736328 255.801 4.51197 252.023 9.1701 252.023Z" fill="#D5429F"/>
<path d="M153.947 342.328C158.605 342.328 162.381 346.106 162.381 350.764C162.38 355.422 158.604 359.198 153.947 359.198C149.289 359.198 145.514 355.422 145.513 350.764C145.513 346.106 149.289 342.328 153.947 342.328Z" fill="#D5429F"/>
<path d="M153.944 172.652C158.602 172.652 162.378 176.428 162.378 181.086C162.378 185.744 158.602 189.52 153.944 189.52C149.286 189.52 145.51 185.744 145.51 181.086C145.51 176.428 149.286 172.652 153.944 172.652Z" fill="#D5429F"/>
<path d="M168.04 183.985C168.023 184.07 167.998 184.154 167.979 184.238C168.003 184.132 168.032 184.026 168.053 183.919L168.04 183.985Z" fill="#D5429F"/>
<path d="M155.121 23.7253C154.736 23.7563 154.346 23.7764 153.952 23.7765L153.947 23.7739C154.342 23.7739 154.734 23.7566 155.121 23.7253Z" fill="#D5429F"/>
<path d="M153.947 0.954605C158.605 0.954698 162.381 4.7303 162.381 9.38838C162.381 14.0464 158.605 17.8221 153.947 17.8221C149.289 17.8221 145.513 14.0464 145.513 9.38838C145.513 4.73025 149.289 0.954605 153.947 0.954605Z" fill="#D5429F"/>
<path d="M287.633 271.081C287.676 271.121 287.722 271.157 287.766 271.196C287.733 271.166 287.697 271.139 287.664 271.109L287.633 271.081Z" fill="#D5429F"/>
<path d="M297.338 252.026C301.996 252.026 305.772 255.802 305.772 260.46C305.772 265.118 301.996 268.893 297.338 268.893C292.68 268.893 288.905 265.118 288.905 260.46C288.905 255.801 292.68 252.026 297.338 252.026Z" fill="#D5429F"/>
<path d="M286.717 270.165L287.165 270.633C287.008 270.477 286.856 270.316 286.707 270.152C286.71 270.156 286.713 270.161 286.717 270.165Z" fill="#D5429F"/>
<path d="M297.72 281.794C302.378 281.795 306.154 285.573 306.154 290.231C306.153 294.888 302.378 298.664 297.72 298.665C293.063 298.665 289.287 294.888 289.286 290.231C289.286 285.573 293.062 281.794 297.72 281.794Z" fill="#D5429F"/>
<path d="M153.944 371.106C158.602 371.106 162.378 374.882 162.378 379.54C162.378 384.198 158.602 387.974 153.944 387.974C149.286 387.974 145.51 384.198 145.51 379.54C145.51 374.882 149.286 371.106 153.944 371.106Z" fill="#D5429F"/>
<path d="M153.944 492.178C158.602 492.178 162.378 495.954 162.378 500.612C162.378 505.27 158.602 509.046 153.944 509.046C149.286 509.046 145.51 505.27 145.51 500.612C145.51 495.954 149.286 492.178 153.944 492.178Z" fill="#D5429F"/>
<path d="M9.1701 281.794C13.8281 281.795 17.6039 285.573 17.6039 290.231C17.6031 294.888 13.8277 298.664 9.1701 298.665C4.51245 298.665 0.737112 294.888 0.736328 290.231C0.736328 285.573 4.51197 281.794 9.1701 281.794Z" fill="#D5429F"/>
<path d="M23.2665 293.13C23.249 293.215 23.224 293.299 23.2051 293.383C23.2289 293.277 23.2578 293.171 23.2793 293.063L23.2665 293.13Z" fill="#D5429F"/>
<path d="M468.148 414.82C448.828 414.82 431.78 410.984 417.006 403.313C402.232 395.642 390.725 385.129 382.485 371.775C374.246 358.138 370.126 342.369 370.126 324.469C370.126 305.149 375.666 288.386 386.747 274.18C398.112 259.69 413.028 250.74 431.496 247.33V246.052C415.585 242.358 402.8 234.261 393.14 221.759C383.48 208.974 378.65 194.2 378.65 177.436C378.65 161.241 382.343 147.035 389.73 134.818C397.402 122.317 407.914 112.657 421.268 105.838C434.906 98.7347 450.532 95.1832 468.148 95.1832C485.763 95.1832 501.248 98.7347 514.602 105.838C528.24 112.657 538.752 122.317 546.139 134.818C553.811 147.035 557.646 161.241 557.646 177.436C557.646 194.2 552.816 208.974 543.156 221.759C533.496 234.261 520.71 242.358 504.8 246.052V247.33C523.267 250.74 538.042 259.69 549.123 274.18C560.487 288.386 566.17 305.149 566.17 324.469C566.17 342.369 562.05 358.138 553.811 371.775C545.571 385.129 534.064 395.642 519.29 403.313C504.515 410.984 487.468 414.82 468.148 414.82ZM468.148 233.266C484.627 233.266 497.981 228.294 508.209 218.35C518.437 208.406 523.552 195.336 523.552 179.141C523.552 163.23 518.437 150.303 508.209 140.358C497.981 130.13 484.627 125.016 468.148 125.016C451.669 125.016 438.315 130.13 428.087 140.358C417.858 150.303 412.744 163.23 412.744 179.141C412.744 195.336 417.858 208.406 428.087 218.35C438.315 228.294 451.669 233.266 468.148 233.266ZM468.148 384.561C487.184 384.561 502.527 379.021 514.176 367.94C526.109 356.575 532.075 341.943 532.075 324.043C532.075 306.143 526.109 291.511 514.176 280.146C502.527 268.781 487.184 263.099 468.148 263.099C449.112 263.099 433.627 268.781 421.694 280.146C410.045 291.511 404.221 306.143 404.221 324.043C404.221 341.943 410.045 356.575 421.694 367.94C433.627 379.021 449.112 384.561 468.148 384.561Z" fill="#D5429F"/>
<path d="M710.905 414.82C682.777 414.82 660.332 406.58 643.569 390.101C627.089 373.338 618.85 351.035 618.85 323.191V186.812C618.85 158.968 627.089 136.807 643.569 120.328C660.332 103.565 682.777 95.1832 710.905 95.1832C739.317 95.1832 761.763 103.565 778.242 120.328C794.721 136.807 802.961 158.968 802.961 186.812V323.191C802.961 351.035 794.579 373.338 777.816 390.101C761.337 406.58 739.033 414.82 710.905 414.82ZM710.905 385.839C728.805 385.839 743.153 380.157 753.95 368.792C764.746 357.143 770.145 341.943 770.145 323.191V186.812C770.145 168.06 764.746 153.002 753.95 141.637C743.153 129.988 728.805 124.164 710.905 124.164C693.006 124.164 678.658 129.988 667.861 141.637C657.064 153.002 651.666 168.06 651.666 186.812V323.191C651.666 341.943 657.064 357.143 667.861 368.792C678.658 380.157 693.006 385.839 710.905 385.839ZM710.905 277.163C703.518 277.163 697.552 275.174 693.006 271.196C688.744 266.935 686.613 261.11 686.613 253.723C686.613 246.336 688.744 240.795 693.006 237.102C697.552 233.124 703.518 231.135 710.905 231.135C718.292 231.135 724.117 233.124 728.379 237.102C732.925 240.795 735.198 246.336 735.198 253.723C735.198 261.11 732.925 266.935 728.379 271.196C724.117 275.174 718.292 277.163 710.905 277.163Z" fill="#D5429F"/>
<path d="M953.663 414.82C925.535 414.82 903.089 406.58 886.326 390.101C869.847 373.338 861.607 351.035 861.607 323.191V186.812C861.607 158.968 869.847 136.807 886.326 120.328C903.089 103.565 925.535 95.1832 953.663 95.1832C982.075 95.1832 1004.52 103.565 1021 120.328C1037.48 136.807 1045.72 158.968 1045.72 186.812V323.191C1045.72 351.035 1037.34 373.338 1020.57 390.101C1004.09 406.58 981.791 414.82 953.663 414.82ZM953.663 385.839C971.562 385.839 985.911 380.157 996.707 368.792C1007.5 357.143 1012.9 341.943 1012.9 323.191V186.812C1012.9 168.06 1007.5 153.002 996.707 141.637C985.911 129.988 971.562 124.164 953.663 124.164C935.763 124.164 921.415 129.988 910.618 141.637C899.822 153.002 894.423 168.06 894.423 186.812V323.191C894.423 341.943 899.822 357.143 910.618 368.792C921.415 380.157 935.763 385.839 953.663 385.839ZM953.663 277.163C946.276 277.163 940.309 275.174 935.763 271.196C931.501 266.935 929.37 261.11 929.37 253.723C929.37 246.336 931.501 240.795 935.763 237.102C940.309 233.124 946.276 231.135 953.663 231.135C961.05 231.135 966.874 233.124 971.136 237.102C975.682 240.795 977.955 246.336 977.955 253.723C977.955 261.11 975.682 266.935 971.136 271.196C966.874 275.174 961.05 277.163 953.663 277.163Z" fill="#D5429F"/>
<path d="M1241.17 410.558V341.09H1100.1V285.687L1215.6 99.445H1253.95L1133.77 293.784V310.405H1241.17V231.561H1275.26V410.558H1241.17Z" fill="#D5429F"/>
</svg>
